<mxfile host="app.diagrams.net" modified="2023-06-07T20:22:46.067Z" agent="Mozilla/5.0 (X11; Linux x86_64) AppleWebKit/537.36 (KHTML, like Gecko) Chrome/114.0.0.0 Safari/537.36" version="21.3.7" etag="x3zFqJtFfB16rMzQUJBk" type="github">
  <diagram name="PÃ¡gina-1" id="YZzorlTxZwB57aUih1hC">
    <mxGraphModel>
      <root>
        <mxCell id="0" />
        <mxCell id="1" parent="0" />
      </root>
    </mxGraphModel>
  </diagram>
</mxfile>
